<?xml version="1.0" encoding="UTF-8" standalone="no"?>
<!DOCTYPE svg PUBLIC "-//W3C//DTD SVG 1.1//EN"
 "http://www.w3.org/Graphics/SVG/1.1/DTD/svg11.dtd">
<!-- Generated by graphviz version 2.26.3 (20100126.1600)
 -->
<!-- Title: _anonymous_0 Pages: 1 -->
<svg width="558px" height="348px"
 viewBox="0.00 0.00 558.00 348.00" xmlns="http://www.w3.org/2000/svg" xmlns:xlink="http://www.w3.org/1999/xlink">
<g id="graph1" class="graph" transform="scale(1 1) rotate(0) translate(4 344)">
<title>_anonymous_0</title>
<g id="graph2" class="cluster"><title>cluster_a</title>
<polygon fill="none" stroke="none" points="8,-8 8,-332 542,-332 542,-8 8,-8"/>
</g>
<!-- a -->
<g id="node2" class="node"><title>a</title>
<polygon fill="none" stroke="black" points="16,-275 16,-323 464,-323 464,-275 16,-275"/>
<text text-anchor="middle" x="240" y="-306.4" font-family="Arial" font-size="14.00">first two bits</text>
<polyline fill="none" stroke="black" points="16,-299 464,-299 "/>
<text text-anchor="middle" x="100" y="-282.4" font-family="Arial" font-size="14.00">00 → value &quot;00000000&quot;</text>
<polyline fill="none" stroke="black" points="184,-275 184,-299 "/>
<text text-anchor="middle" x="229.5" y="-282.4" font-family="Arial" font-size="14.00">01 → NULL</text>
<polyline fill="none" stroke="black" points="275,-275 275,-299 "/>
<text text-anchor="middle" x="320.5" y="-282.4" font-family="Arial" font-size="14.00">10 → NULL</text>
<polyline fill="none" stroke="black" points="366,-275 366,-299 "/>
<text text-anchor="middle" x="415" y="-282.4" font-family="Arial" font-size="14.00">11 → pointer</text>
</g>
<!-- b -->
<g id="node3" class="node"><title>b</title>
<polygon fill="none" stroke="black" points="89.5,-189 89.5,-237 460.5,-237 460.5,-189 89.5,-189"/>
<text text-anchor="middle" x="275" y="-220.4" font-family="Arial" font-size="14.00">second two bits</text>
<polyline fill="none" stroke="black" points="89.5,-213 460.5,-213 "/>
<text text-anchor="middle" x="135" y="-196.4" font-family="Arial" font-size="14.00">00 → NULL</text>
<polyline fill="none" stroke="black" points="180.5,-189 180.5,-213 "/>
<text text-anchor="middle" x="226" y="-196.4" font-family="Arial" font-size="14.00">01 → NULL</text>
<polyline fill="none" stroke="black" points="271.5,-189 271.5,-213 "/>
<text text-anchor="middle" x="317" y="-196.4" font-family="Arial" font-size="14.00">10 → NULL</text>
<polyline fill="none" stroke="black" points="362.5,-189 362.5,-213 "/>
<text text-anchor="middle" x="411.5" y="-196.4" font-family="Arial" font-size="14.00">11 → pointer</text>
</g>
<!-- a&#45;&gt;b -->
<g id="edge3" class="edge"><title>a:1&#45;&gt;b</title>
<path fill="none" stroke="black" d="M415,-275C415,-262.389 395.77,-250.61 371.563,-240.778"/>
<polygon fill="black" stroke="black" points="372.661,-237.45 362.072,-237.107 370.136,-243.979 372.661,-237.45"/>
</g>
<!-- c -->
<g id="node4" class="node"><title>c</title>
<polygon fill="none" stroke="black" points="89.5,-103 89.5,-151 460.5,-151 460.5,-103 89.5,-103"/>
<text text-anchor="middle" x="275" y="-134.4" font-family="Arial" font-size="14.00">third two bits</text>
<polyline fill="none" stroke="black" points="89.5,-127 460.5,-127 "/>
<text text-anchor="middle" x="135" y="-110.4" font-family="Arial" font-size="14.00">00 → NULL</text>
<polyline fill="none" stroke="black" points="180.5,-103 180.5,-127 "/>
<text text-anchor="middle" x="226" y="-110.4" font-family="Arial" font-size="14.00">01 → NULL</text>
<polyline fill="none" stroke="black" points="271.5,-103 271.5,-127 "/>
<text text-anchor="middle" x="317" y="-110.4" font-family="Arial" font-size="14.00">10 → NULL</text>
<polyline fill="none" stroke="black" points="362.5,-103 362.5,-127 "/>
<text text-anchor="middle" x="411.5" y="-110.4" font-family="Arial" font-size="14.00">11 → pointer</text>
</g>
<!-- b&#45;&gt;c -->
<g id="edge5" class="edge"><title>b:1&#45;&gt;c</title>
<path fill="none" stroke="black" d="M412,-189C412,-176.499 392.828,-164.675 368.829,-154.77"/>
<polygon fill="black" stroke="black" points="370.011,-151.474 359.424,-151.071 367.449,-157.989 370.011,-151.474"/>
</g>
<!-- d -->
<g id="node5" class="node"><title>d</title>
<polygon fill="none" stroke="black" points="16,-17 16,-65 534,-65 534,-17 16,-17"/>
<text text-anchor="middle" x="275" y="-48.4" font-family="Arial" font-size="14.00">fourth two bits</text>
<polyline fill="none" stroke="black" points="16,-41 534,-41 "/>
<text text-anchor="middle" x="61.5" y="-24.4" font-family="Arial" font-size="14.00">00 → NULL</text>
<polyline fill="none" stroke="black" points="107,-17 107,-41 "/>
<text text-anchor="middle" x="152.5" y="-24.4" font-family="Arial" font-size="14.00">01 → NULL</text>
<polyline fill="none" stroke="black" points="198,-17 198,-41 "/>
<text text-anchor="middle" x="282" y="-24.4" font-family="Arial" font-size="14.00">10 → value &quot;11111110&quot;</text>
<polyline fill="none" stroke="black" points="366,-17 366,-41 "/>
<text text-anchor="middle" x="450" y="-24.4" font-family="Arial" font-size="14.00">11 → value &quot;11111111&quot;</text>
</g>
<!-- c&#45;&gt;d -->
<g id="edge7" class="edge"><title>c:1&#45;&gt;d</title>
<path fill="none" stroke="black" d="M412,-103C412,-90.4992 392.828,-78.6749 368.829,-68.7703"/>
<polygon fill="black" stroke="black" points="370.011,-65.4745 359.424,-65.0709 367.449,-71.9886 370.011,-65.4745"/>
</g>
</g>
</svg>
