<?xml version="1.0" encoding="UTF-8" standalone="no"?>
<!DOCTYPE svg PUBLIC "-//W3C//DTD SVG 1.1//EN"
 "http://www.w3.org/Graphics/SVG/1.1/DTD/svg11.dtd">
<!-- Generated by graphviz version 2.26.3 (20100126.1600)
 -->
<!-- Title: _anonymous_0 Pages: 1 -->
<svg width="286px" height="144px"
 viewBox="0.00 0.00 286.00 144.00" xmlns="http://www.w3.org/2000/svg" xmlns:xlink="http://www.w3.org/1999/xlink">
<g id="graph1" class="graph" transform="scale(1 1) rotate(0) translate(4 140)">
<title>_anonymous_0</title>
<!-- a -->
<g id="node1" class="node"><title>a</title>
<polygon fill="none" stroke="black" points="74,-87 74,-135 204,-135 204,-87 74,-87"/>
<text text-anchor="middle" x="139" y="-118.4" font-family="Arial" font-size="14.00">value &quot;11111110&quot;</text>
<polyline fill="none" stroke="black" points="74,-111 204,-111 "/>
<text text-anchor="middle" x="106.5" y="-94.4" font-family="Arial" font-size="14.00">pointer</text>
<polyline fill="none" stroke="black" points="139,-87 139,-111 "/>
<text text-anchor="middle" x="171.5" y="-94.4" font-family="Arial" font-size="14.00">pointer</text>
</g>
<!-- b -->
<g id="node2" class="node"><title>b</title>
<polygon fill="none" stroke="black" points="0,-1 0,-49 130,-49 130,-1 0,-1"/>
<text text-anchor="middle" x="65" y="-32.4" font-family="Arial" font-size="14.00">value &quot;00000000&quot;</text>
<polyline fill="none" stroke="black" points="0,-25 130,-25 "/>
<text text-anchor="middle" x="32.5" y="-8.4" font-family="Arial" font-size="14.00">NULL</text>
<polyline fill="none" stroke="black" points="65,-1 65,-25 "/>
<text text-anchor="middle" x="97.5" y="-8.4" font-family="Arial" font-size="14.00">NULL</text>
</g>
<!-- a&#45;&gt;b -->
<g id="edge2" class="edge"><title>a:0&#45;&gt;b</title>
<path fill="none" stroke="black" d="M73,-99C55.6137,-99 54.2932,-78.5591 56.9535,-59.1638"/>
<polygon fill="black" stroke="black" points="60.4166,-59.6758 58.6435,-49.2304 53.5157,-58.5016 60.4166,-59.6758"/>
</g>
<!-- c -->
<g id="node3" class="node"><title>c</title>
<polygon fill="none" stroke="black" points="148,-1 148,-49 278,-49 278,-1 148,-1"/>
<text text-anchor="middle" x="213" y="-32.4" font-family="Arial" font-size="14.00">value &quot;11111111&quot;</text>
<polyline fill="none" stroke="black" points="148,-25 278,-25 "/>
<text text-anchor="middle" x="180.5" y="-8.4" font-family="Arial" font-size="14.00">NULL</text>
<polyline fill="none" stroke="black" points="213,-1 213,-25 "/>
<text text-anchor="middle" x="245.5" y="-8.4" font-family="Arial" font-size="14.00">NULL</text>
</g>
<!-- a&#45;&gt;c -->
<g id="edge4" class="edge"><title>a:1&#45;&gt;c</title>
<path fill="none" stroke="black" d="M205,-99C222.386,-99 223.707,-78.5591 221.047,-59.1638"/>
<polygon fill="black" stroke="black" points="224.484,-58.5016 219.357,-49.2304 217.583,-59.6758 224.484,-58.5016"/>
</g>
</g>
</svg>
