<?xml version="1.0" encoding="UTF-8" standalone="no"?>
<!DOCTYPE svg PUBLIC "-//W3C//DTD SVG 1.1//EN"
 "http://www.w3.org/Graphics/SVG/1.1/DTD/svg11.dtd">
<!-- Generated by graphviz version 2.26.3 (20100126.1600)
 -->
<!-- Title: _anonymous_0 Pages: 1 -->
<svg width="374px" height="354px"
 viewBox="0.00 0.00 374.00 354.00" xmlns="http://www.w3.org/2000/svg" xmlns:xlink="http://www.w3.org/1999/xlink">
<g id="graph1" class="graph" transform="scale(1 1) rotate(0) translate(4 350)">
<title>_anonymous_0</title>
<!-- root -->
<g id="node1" class="node"><title>root</title>
<polygon fill="none" stroke="black" points="65,-297 65,-345 277,-345 277,-297 65,-297"/>
<text text-anchor="middle" x="171" y="-328.4" font-family="Arial" font-size="14.00">root</text>
<polyline fill="none" stroke="black" points="65,-321 277,-321 "/>
<text text-anchor="middle" x="171" y="-304.4" font-family="Arial" font-size="14.00">mask=1001, pointer to an array</text>
</g>
<!-- a -->
<g id="node2" class="node"><title>a</title>
<polygon fill="none" stroke="black" points="0,-223 0,-259 342,-259 342,-223 0,-223"/>
<text text-anchor="middle" x="65" y="-236.4" font-family="Arial" font-size="14.00">value &quot;00000000&quot;</text>
<polyline fill="none" stroke="black" points="130,-223 130,-259 "/>
<text text-anchor="middle" x="236" y="-236.4" font-family="Arial" font-size="14.00">mask=0001, pointer to an array</text>
</g>
<!-- root&#45;&gt;a -->
<g id="edge2" class="edge"><title>root:v&#45;&gt;a</title>
<path fill="none" stroke="black" d="M171,-297C171,-288.015 171,-278.218 171,-269.367"/>
<polygon fill="black" stroke="black" points="174.5,-269.159 171,-259.159 167.5,-269.159 174.5,-269.159"/>
</g>
<!-- b -->
<g id="node3" class="node"><title>b</title>
<polygon fill="none" stroke="black" points="130,-149 130,-185 342,-185 342,-149 130,-149"/>
<text text-anchor="middle" x="236" y="-162.4" font-family="Arial" font-size="14.00">mask=0001, pointer to an array</text>
</g>
<!-- a&#45;&gt;b -->
<g id="edge4" class="edge"><title>a:1&#45;&gt;b</title>
<path fill="none" stroke="black" d="M236,-223C236,-214.015 236,-204.218 236,-195.367"/>
<polygon fill="black" stroke="black" points="239.5,-195.159 236,-185.159 232.5,-195.159 239.5,-195.159"/>
</g>
<!-- c -->
<g id="node4" class="node"><title>c</title>
<polygon fill="none" stroke="black" points="130,-75 130,-111 342,-111 342,-75 130,-75"/>
<text text-anchor="middle" x="236" y="-88.4" font-family="Arial" font-size="14.00">mask=0011, pointer to an array</text>
</g>
<!-- b&#45;&gt;c -->
<g id="edge6" class="edge"><title>b:0&#45;&gt;c</title>
<path fill="none" stroke="black" d="M236,-148.686C236,-140.388 236,-130.522 236,-121.417"/>
<polygon fill="black" stroke="black" points="239.5,-121.217 236,-111.217 232.5,-121.217 239.5,-121.217"/>
</g>
<!-- d -->
<g id="node5" class="node"><title>d</title>
<polygon fill="none" stroke="black" points="106,-1 106,-37 366,-37 366,-1 106,-1"/>
<text text-anchor="middle" x="171" y="-14.4" font-family="Arial" font-size="14.00">value &quot;11111110&quot;</text>
<polyline fill="none" stroke="black" points="236,-1 236,-37 "/>
<text text-anchor="middle" x="301" y="-14.4" font-family="Arial" font-size="14.00">value &quot;11111111&quot;</text>
</g>
<!-- c&#45;&gt;d -->
<g id="edge8" class="edge"><title>c:0&#45;&gt;d</title>
<path fill="none" stroke="black" d="M236,-74.6856C236,-66.3877 236,-56.5222 236,-47.4169"/>
<polygon fill="black" stroke="black" points="239.5,-47.2167 236,-37.2167 232.5,-47.2168 239.5,-47.2167"/>
</g>
</g>
</svg>
