<?xml version="1.0" encoding="UTF-8" standalone="no"?>
<!DOCTYPE svg PUBLIC "-//W3C//DTD SVG 1.1//EN"
 "http://www.w3.org/Graphics/SVG/1.1/DTD/svg11.dtd">
<!-- Generated by graphviz version 2.26.3 (20100126.1600)
 -->
<!-- Title: _anonymous_0 Pages: 1 -->
<svg width="478px" height="76px"
 viewBox="0.00 0.00 478.00 76.00" xmlns="http://www.w3.org/2000/svg" xmlns:xlink="http://www.w3.org/1999/xlink">
<g id="graph1" class="graph" transform="scale(1 1) rotate(0) translate(4 72)">
<title>_anonymous_0</title>
<g id="graph2" class="cluster"><title>cluster_a</title>
<polygon fill="none" stroke="none" points="8,-8 8,-60 462,-60 462,-8 8,-8"/>
</g>
<!-- root -->
<g id="node2" class="node"><title>root</title>
<polygon fill="none" stroke="black" points="16,-16 16,-52 228,-52 228,-16 16,-16"/>
<text text-anchor="middle" x="122" y="-29.4" font-family="Arial" font-size="14.00">mask=1001, pointer to an array</text>
</g>
<!-- a -->
<g id="node3" class="node"><title>a</title>
<polygon fill="none" stroke="black" points="264,-16 264,-52 454,-52 454,-16 264,-16"/>
<text text-anchor="middle" x="329" y="-29.4" font-family="Arial" font-size="14.00">value &quot;00000000&quot;</text>
<polyline fill="none" stroke="black" points="394,-16 394,-52 "/>
<text text-anchor="middle" x="424" y="-29.4" font-family="Arial" font-size="14.00">pointer</text>
</g>
<!-- root&#45;&gt;a -->
<g id="edge3" class="edge"><title>root:1&#45;&gt;a</title>
<path fill="none" stroke="black" d="M228.164,-34C236.585,-34 245.085,-34 253.495,-34"/>
<polygon fill="black" stroke="black" points="253.696,-37.5001 263.696,-34 253.696,-30.5001 253.696,-37.5001"/>
</g>
</g>
</svg>
