<?xml version="1.0" encoding="UTF-8" standalone="no"?>
<!DOCTYPE svg PUBLIC "-//W3C//DTD SVG 1.1//EN"
 "http://www.w3.org/Graphics/SVG/1.1/DTD/svg11.dtd">
<!-- Generated by graphviz version 2.26.3 (20100126.1600)
 -->
<!-- Title: _anonymous_0 Pages: 1 -->
<svg width="393px" height="316px"
 viewBox="0.00 0.00 393.00 316.00" xmlns="http://www.w3.org/2000/svg" xmlns:xlink="http://www.w3.org/1999/xlink">
<g id="graph1" class="graph" transform="scale(1 1) rotate(0) translate(4 312)">
<title>_anonymous_0</title>
<!-- a -->
<g id="node1" class="node"><title>a</title>
<polygon fill="none" stroke="black" points="0,-259 0,-307 266,-307 266,-259 0,-259"/>
<text text-anchor="middle" x="133" y="-290.4" font-family="Arial" font-size="14.00">first two bits</text>
<polyline fill="none" stroke="black" points="0,-283 266,-283 "/>
<text text-anchor="middle" x="84" y="-266.4" font-family="Arial" font-size="14.00">00 → value &quot;00000000&quot;</text>
<polyline fill="none" stroke="black" points="168,-259 168,-283 "/>
<text text-anchor="middle" x="217" y="-266.4" font-family="Arial" font-size="14.00">11 → pointer</text>
</g>
<!-- b -->
<g id="node2" class="node"><title>b</title>
<polygon fill="none" stroke="black" points="159,-173 159,-221 275,-221 275,-173 159,-173"/>
<text text-anchor="middle" x="217" y="-204.4" font-family="Arial" font-size="14.00">second two bits</text>
<polyline fill="none" stroke="black" points="159,-197 275,-197 "/>
<text text-anchor="middle" x="217" y="-180.4" font-family="Arial" font-size="14.00">11 → pointer</text>
</g>
<!-- a&#45;&gt;b -->
<g id="edge2" class="edge"><title>a:1&#45;&gt;b</title>
<path fill="none" stroke="black" d="M217,-259C217,-250.026 217,-240.321 217,-231.313"/>
<polygon fill="black" stroke="black" points="220.5,-231.144 217,-221.144 213.5,-231.144 220.5,-231.144"/>
</g>
<!-- c -->
<g id="node3" class="node"><title>c</title>
<polygon fill="none" stroke="black" points="168,-87 168,-135 266,-135 266,-87 168,-87"/>
<text text-anchor="middle" x="217" y="-118.4" font-family="Arial" font-size="14.00">third two bits</text>
<polyline fill="none" stroke="black" points="168,-111 266,-111 "/>
<text text-anchor="middle" x="217" y="-94.4" font-family="Arial" font-size="14.00">11 → pointer</text>
</g>
<!-- b&#45;&gt;c -->
<g id="edge4" class="edge"><title>b:1&#45;&gt;c</title>
<path fill="none" stroke="black" d="M217,-173C217,-164.026 217,-154.321 217,-145.313"/>
<polygon fill="black" stroke="black" points="220.5,-145.144 217,-135.144 213.5,-145.144 220.5,-145.144"/>
</g>
<!-- d -->
<g id="node4" class="node"><title>d</title>
<polygon fill="none" stroke="black" points="49,-1 49,-49 385,-49 385,-1 49,-1"/>
<text text-anchor="middle" x="217" y="-32.4" font-family="Arial" font-size="14.00">fourth two bits</text>
<polyline fill="none" stroke="black" points="49,-25 385,-25 "/>
<text text-anchor="middle" x="133" y="-8.4" font-family="Arial" font-size="14.00">10 → value &quot;11111110&quot;</text>
<polyline fill="none" stroke="black" points="217,-1 217,-25 "/>
<text text-anchor="middle" x="301" y="-8.4" font-family="Arial" font-size="14.00">11 → value &quot;11111111&quot;</text>
</g>
<!-- c&#45;&gt;d -->
<g id="edge6" class="edge"><title>c:1&#45;&gt;d</title>
<path fill="none" stroke="black" d="M217,-87C217,-78.0256 217,-68.3205 217,-59.3126"/>
<polygon fill="black" stroke="black" points="220.5,-59.1438 217,-49.1439 213.5,-59.1439 220.5,-59.1438"/>
</g>
</g>
</svg>
